<?xml version="1.0" standalone="no"?>
<!DOCTYPE svg PUBLIC "-//W3C//DTD SVG 20010904//EN"
 "http://www.w3.org/TR/2001/REC-SVG-20010904/DTD/svg10.dtd">
<svg version="1.0" xmlns="http://www.w3.org/2000/svg"
 width="275.000000pt" height="183.000000pt" viewBox="0 0 275.000000 183.000000"
 preserveAspectRatio="xMidYMid meet">

<g transform="translate(0.000000,183.000000) scale(0.100000,-0.100000)"
fill="#000000" stroke="none">
<path d="M1338 1243 c12 -2 32 -2 45 0 12 2 2 4 -23 4 -25 0 -35 -2 -22 -4z"/>
<path d="M688 1223 c382 -2 1003 -2 1380 0 378 1 66 2 -693 2 -759 0 -1068 -1
-687 -2z"/>
<path d="M1323 1189 c-228 -44 -305 -327 -132 -483 179 -161 464 -29 462 216
-1 169 -162 300 -330 267z m135 -50 c2 -5 12 -9 22 -9 10 0 39 -21 64 -46 25
-25 46 -54 46 -64 0 -10 5 -20 11 -22 17 -6 18 -160 2 -165 -7 -3 -13 -13 -13
-24 0 -11 -7 -22 -15 -25 -8 -4 -15 -12 -15 -19 0 -16 -63 -65 -83 -65 -9 0
-17 -5 -19 -12 -3 -7 -32 -11 -83 -11 -51 0 -80 4 -83 11 -2 7 -12 12 -22 12
-24 0 -110 86 -110 110 0 10 -6 20 -12 23 -17 5 -16 159 1 165 6 2 11 12 11
22 0 24 86 110 111 110 10 0 19 4 19 9 0 21 161 20 168 0z"/>
<path d="M1372 1044 c-2 -62 -5 -73 -30 -97 -23 -22 -38 -27 -97 -30 l-70 -3
74 -2 c66 -2 75 -4 95 -29 15 -20 23 -47 27 -98 l5 -70 2 71 c2 62 5 73 30 97
23 22 38 27 97 30 l70 3 -71 2 c-62 2 -73 5 -97 30 -22 23 -27 38 -30 97 l-3
70 -2 -71z"/>
<path d="M1294 1043 c14 -28 30 -54 36 -58 5 -3 10 -11 10 -16 0 -6 -5 -7 -12
-3 -7 4 -8 3 -4 -4 4 -7 3 -12 -3 -12 -5 0 -13 5 -16 10 -7 11 -105 63 -105
56 0 -2 26 -21 58 -41 31 -21 49 -35 40 -32 -9 3 -34 8 -55 11 l-38 6 43 -16
c81 -30 128 17 98 98 l-16 43 6 -38 c3 -21 8 -46 10 -55 3 -9 -9 6 -26 33 -46
71 -56 78 -26 18z"/>
<path d="M1435 1033 c-21 -32 -35 -50 -32 -41 3 9 8 34 11 55 l6 38 -16 -43
c-30 -81 17 -128 98 -98 l43 16 -38 -6 c-21 -3 -46 -8 -55 -11 -9 -3 8 11 38
30 64 43 62 48 -4 11 -25 -14 -51 -22 -57 -18 -8 5 -9 3 -4 -6 5 -9 4 -11 -3
-6 -8 4 0 28 24 71 20 36 34 65 31 65 -3 0 -22 -26 -42 -57z"/>
<path d="M1264 1020 c38 -43 63 -63 55 -43 -2 5 -24 27 -49 49 l-45 39 39 -45z"/>
<path d="M1473 1022 c-41 -36 -58 -62 -30 -45 14 8 82 83 76 83 -2 -1 -23 -18
-46 -38z"/>
<path d="M1240 884 l-35 -14 38 6 c21 3 46 8 55 11 9 3 -9 -11 -40 -32 -32
-20 -58 -39 -58 -41 0 -7 98 45 105 56 3 5 11 10 16 10 6 0 7 -5 3 -12 -4 -7
-3 -8 4 -4 7 4 12 3 12 -3 0 -5 -5 -13 -10 -16 -11 -7 -63 -105 -56 -105 2 0
21 26 41 58 21 31 35 49 32 40 -3 -9 -8 -34 -11 -55 l-6 -38 14 35 c21 50 19
68 -9 95 -27 28 -45 30 -95 9z"/>
<path d="M1416 879 c-29 -23 -32 -47 -10 -99 l14 -35 -4 31 c-3 18 -8 45 -11
60 -6 25 -3 23 17 -12 40 -71 61 -92 28 -30 -16 33 -26 64 -22 68 5 5 30 -3
56 -17 67 -36 70 -30 6 12 -30 19 -47 33 -38 30 9 -3 34 -8 55 -11 l38 -6 -35
14 c-48 20 -63 19 -94 -5z"/>
<path d="M1270 817 l-35 -42 42 35 c24 19 43 38 43 43 0 16 -17 4 -50 -36z"/>
<path d="M1430 852 c0 -4 21 -25 48 -47 l47 -39 -35 41 c-35 40 -60 60 -60 45z"/>
<path d="M0 305 l0 -305 1375 0 1375 0 0 305 0 305 -1375 0 -1375 0 0 -305z"/>
</g>
</svg>
