<?xml version="1.0" standalone="no"?>
<!DOCTYPE svg PUBLIC "-//W3C//DTD SVG 20010904//EN"
 "http://www.w3.org/TR/2001/REC-SVG-20010904/DTD/svg10.dtd">
<svg version="1.0" xmlns="http://www.w3.org/2000/svg"
 width="360.000000pt" height="216.000000pt" viewBox="0 0 360.000000 216.000000"
 preserveAspectRatio="xMidYMid meet">

<g transform="translate(0.000000,216.000000) scale(0.100000,-0.100000)"
fill="#000000" stroke="none">
<path d="M655 1348 c-33 -22 -64 -44 -70 -50 -14 -15 10 -1 59 34 44 31 61 36
52 12 -3 -9 -2 -12 5 -9 6 4 8 13 5 20 -3 8 0 16 7 18 7 2 10 7 7 10 -3 3 -32
-12 -65 -35z"/>
<path d="M684 1295 c-3 -8 -4 -20 -2 -27 3 -7 7 -1 10 15 6 29 1 36 -8 12z"/>
<path d="M545 1280 c-3 -6 1 -7 9 -4 18 7 21 14 7 14 -6 0 -13 -4 -16 -10z"/>
<path d="M795 1266 c-3 -9 -8 -24 -11 -33 -8 -26 -94 -344 -94 -349 0 -2 20
-4 44 -4 l44 0 11 48 c5 26 13 62 16 80 6 30 9 32 50 32 24 0 48 -6 54 -14 6
-7 14 -43 18 -80 l6 -66 47 0 46 0 -7 53 c-4 28 -8 60 -8 69 -1 9 -8 24 -17
33 -9 9 -15 17 -13 18 2 1 18 9 34 19 37 20 75 82 75 124 0 20 -9 39 -26 55
-24 22 -35 24 -145 28 -102 3 -120 1 -124 -13z m203 -73 c11 -21 1 -53 -22
-72 -21 -18 -136 -28 -136 -12 0 7 5 32 11 57 l11 44 64 0 c50 0 65 -4 72 -17z"/>
<path d="M505 1250 c-3 -6 1 -7 9 -4 18 7 21 14 7 14 -6 0 -13 -4 -16 -10z"/>
<path d="M559 1233 c-13 -16 -12 -17 4 -4 9 7 17 15 17 17 0 8 -8 3 -21 -13z"/>
<path d="M666 1235 c-9 -26 -7 -32 5 -12 6 10 9 21 6 23 -2 3 -7 -2 -11 -11z"/>
<path d="M471 1218 c-5 -13 -12 -34 -16 -47 l-7 -23 31 23 c35 26 40 35 11 19
-23 -12 -24 -11 -10 24 5 14 7 26 5 26 -3 0 -9 -10 -14 -22z"/>
<path d="M581 1184 c0 -11 3 -14 6 -6 3 7 2 16 -1 19 -3 4 -6 -2 -5 -13z"/>
<path d="M651 1173 c-1 -6 -4 -20 -7 -30 -5 -17 -5 -17 6 0 6 10 9 23 6 30 -3
9 -5 9 -5 0z"/>
<path d="M424 1100 c-116 -75 -120 -80 -148 -192 l-6 -28 98 0 98 0 32 118
c39 147 45 172 40 172 -3 0 -54 -32 -114 -70z"/>
<path d="M1177 1149 c-75 -39 -122 -154 -93 -224 25 -59 101 -70 161 -23 l27
21 -6 -21 c-7 -20 -4 -22 33 -22 22 0 42 4 45 9 3 5 21 68 40 140 l34 131 -44
0 c-37 0 -44 -3 -44 -20 0 -18 -2 -17 -25 5 -30 31 -75 32 -128 4z m118 -107
c-1 -63 -31 -102 -80 -102 -39 0 -55 16 -55 56 0 64 64 122 115 104 17 -6 20
-16 20 -58z"/>
<path d="M1835 1151 c-71 -33 -115 -102 -115 -181 0 -98 137 -131 234 -56 61
46 95 153 66 207 -26 48 -115 63 -185 30z m97 -58 c21 -19 21 -25 8 -74 -14
-51 -44 -79 -85 -79 -39 0 -60 27 -50 63 17 58 31 80 59 93 40 17 46 17 68 -3z"/>
<path d="M2244 1160 c-12 -5 -25 -13 -29 -19 -10 -17 -28 -13 -21 4 4 12 -3
15 -34 15 -45 0 -51 -8 -70 -90 -6 -30 -21 -84 -31 -119 -10 -35 -19 -65 -19
-67 0 -2 19 -4 43 -4 l42 0 19 79 c25 106 48 134 109 134 36 0 47 4 47 16 0 9
3 26 6 39 5 18 2 22 -17 21 -13 0 -34 -4 -45 -9z"/>
<path d="M2456 1145 c-35 -24 -37 -24 -31 -5 6 18 2 20 -33 20 l-39 0 -27
-102 c-16 -57 -41 -147 -56 -200 -15 -54 -25 -100 -22 -103 3 -3 20 -5 39 -5
37 0 41 6 68 104 15 53 18 57 33 43 63 -55 168 -11 213 88 18 40 25 109 13
140 -9 21 -56 45 -92 45 -16 0 -46 -11 -66 -25z m75 -66 c13 -25 -4 -87 -31
-117 -28 -29 -85 -30 -100 -1 -14 26 -5 70 22 104 36 46 88 52 109 14z"/>
<path d="M2765 1155 c-96 -49 -146 -187 -91 -252 20 -23 32 -28 70 -27 24 0
56 8 70 17 31 21 37 21 30 2 -5 -12 2 -15 34 -15 46 0 53 10 77 129 8 40 18
77 21 82 3 6 9 23 14 39 l9 30 -45 0 c-38 0 -44 -3 -44 -21 0 -21 -1 -21 -25
5 -28 30 -73 34 -120 11z m107 -69 c20 -30 -6 -117 -40 -135 -12 -6 -35 -11
-52 -11 -23 0 -33 6 -40 25 -16 43 19 117 65 135 23 10 57 3 67 -14z"/>
<path d="M1477 1153 c-4 -3 -7 -17 -7 -29 0 -21 5 -23 66 -26 l67 -3 -95 -82
c-63 -53 -97 -90 -100 -107 l-5 -26 128 0 c105 0 129 3 129 14 0 8 3 21 6 30
5 13 -7 16 -71 18 l-77 3 64 53 c113 94 126 107 133 135 l7 27 -119 0 c-66 0
-123 -3 -126 -7z"/>
<path d="M3036 1133 c3 -16 13 -76 23 -135 l18 -106 -49 -66 c-26 -37 -48 -68
-48 -71 0 -3 20 -5 44 -5 29 0 46 5 49 14 5 13 51 79 209 301 l68 95 -43 0
c-42 0 -43 -1 -102 -86 -67 -97 -65 -98 -80 29 l-6 57 -44 0 c-43 0 -44 -1
-39 -27z"/>
<path d="M556 1099 c-8 -42 0 -50 9 -9 4 17 5 34 2 36 -2 3 -7 -10 -11 -27z"/>
<path d="M621 1044 c0 -11 3 -14 6 -6 3 7 2 16 -1 19 -3 4 -6 -2 -5 -13z"/>
<path d="M535 1041 c-3 -5 -1 -12 5 -16 5 -3 10 1 10 9 0 18 -6 21 -15 7z"/>
<path d="M600 999 c0 -5 5 -7 10 -4 6 3 10 8 10 11 0 2 -4 4 -10 4 -5 0 -10
-5 -10 -11z"/>
<path d="M590 945 c-7 -20 -10 -39 -7 -42 3 -3 10 12 16 33 14 49 7 56 -9 9z"/>
<path d="M521 958 c0 -9 -4 -25 -7 -35 -5 -17 -5 -17 6 0 6 10 9 25 7 35 -4
15 -5 15 -6 0z"/>
<path d="M500 888 c0 -4 21 -8 48 -7 52 1 48 6 -10 11 -21 2 -38 0 -38 -4z"/>
</g>
</svg>
